HIERARCHY
ROOT Hips
{
 OFFSET 0.000000 0.000000 0.000000
 CHANNELS 6 Xposition Yposition Zposition Yrotation Xrotation Zrotation
 JOINT Chest
 {
  OFFSET 0.000000 9.585900 0.002600
  CHANNELS 3 Yrotation Xrotation Zrotation
  JOINT Chest2
  {
   OFFSET 0.000000 9.601200 -0.005300
   CHANNELS 3 Yrotation Xrotation Zrotation
   JOINT Chest3
   {
    OFFSET 0.000000 9.561800 0.000000
    CHANNELS 3 Yrotation Xrotation Zrotation
    JOINT Chest4
    {
     OFFSET 0.000000 9.552100 0.000000
     CHANNELS 3 Yrotation Xrotation Zrotation
     JOINT Neck
     {
      OFFSET 0.000000 14.453000 0.000000
      CHANNELS 3 Yrotation Xrotation Zrotation
      JOINT Head
      {
       OFFSET 0.000000 8.936500 -0.011300
       CHANNELS 3 Yrotation Xrotation Zrotation
       End Site
       {
        OFFSET 0.000000 17.073600 -0.006000
       }
      }
     }
     JOINT RightCollar
     {
      OFFSET -2.921100 9.558500 0.000000
      CHANNELS 3 Yrotation Xrotation Zrotation
      JOINT RightShoulder
      {
       OFFSET -13.519700 0.000000 0.000000
       CHANNELS 3 Yrotation Xrotation Zrotation
       JOINT RightElbow
       {
        OFFSET 0.000000 -29.696600 0.000000
        CHANNELS 3 Yrotation Xrotation Zrotation
        JOINT RightWrist
        {
         OFFSET 0.000000 -24.004700 0.000000
         CHANNELS 3 Yrotation Xrotation Zrotation
         End Site
         {
          OFFSET 0.000000 -17.728500 0.000000
         }
        }
       }
      }
     }
     JOINT LeftCollar
     {
      OFFSET 2.921100 9.558500 0.000000
      CHANNELS 3 Yrotation Xrotation Zrotation
      JOINT LeftShoulder
      {
       OFFSET 13.519700 0.000000 0.000000
       CHANNELS 3 Yrotation Xrotation Zrotation
       JOINT LeftElbow
       {
        OFFSET 0.000000 -29.696600 0.000000
        CHANNELS 3 Yrotation Xrotation Zrotation
        JOINT LeftWrist
        {
         OFFSET 0.000000 -24.004700 0.000000
         CHANNELS 3 Yrotation Xrotation Zrotation
         End Site
         {
          OFFSET 0.000000 -17.728500 0.000000
         }
        }
       }
      }
     }
    }
   }
  }
 }
 JOINT RightHip
 {
  OFFSET -7.771700 -0.012900 -0.001300
  CHANNELS 3 Yrotation Xrotation Zrotation
  JOINT RightKnee
  {
   OFFSET 0.000000 -40.869800 0.001200
   CHANNELS 3 Yrotation Xrotation Zrotation
   JOINT RightAnkle
   {
    OFFSET 0.000000 -39.717900 0.002100
    CHANNELS 3 Yrotation Xrotation Zrotation
    JOINT RightToe
    {
     OFFSET 0.000000 -4.965400 11.033500
     CHANNELS 3 Yrotation Xrotation Zrotation
     End Site
     {
      OFFSET 0.000000 -1.423100 5.872300
     }
    }
   }
  }
 }
 JOINT LeftHip
 {
  OFFSET 7.771700 -0.012900 -0.001300
  CHANNELS 3 Yrotation Xrotation Zrotation
  JOINT LeftKnee
  {
   OFFSET 0.000000 -40.869800 0.001200
   CHANNELS 3 Yrotation Xrotation Zrotation
   JOINT LeftAnkle
   {
    OFFSET 0.000000 -39.717900 0.002100
    CHANNELS 3 Yrotation Xrotation Zrotation
    JOINT LeftToe
    {
     OFFSET 0.000000 -4.965400 11.033500
     CHANNELS 3 Yrotation Xrotation Zrotation
     End Site
     {
      OFFSET 0.000000 -1.423100 5.872300
     }
    }
   }
  }
 }
}
MOTION
Frames: 16
Frame Time: 0.008333
0.000000 85.388000 0.000000 0.000000 -5.767877 0.000000 0.000000 11.653817 0.000000 0.000000 -5.885947 0.000000 0.000000 -0.000000 0.000000 0.000000 -0.000000 0.000000 0.000000 12.528835 0.000000 0.000000 0.711642 0.000000 0.000000 -0.000000 0.000000 0.000000 0.000000 -90.000000 0.000000 -2.309062 0.000000 0.000000 2.309062 0.000000 0.000000 -0.000000 0.000000 0.000000 -0.000000 90.000000 0.000000 -2.309062 0.000000 0.000000 2.309062 0.000000 0.000000 8.520406 0.000000 0.000000 1.905762 0.000000 -0.000000 -4.658285 0.000000 0.000000 -0.000000 0.000000 0.000000 8.520406 0.000000 0.000000 1.905762 0.000000 -0.000000 -4.658285 0.000000 0.000000 -0.000000 0.000000
-83.978962 57.918598 88.640770 174.583770 -30.076353 -1.038163 3.094489 17.592651 2.529573 0.283481 1.940053 0.237901 0.473144 3.217145 0.396348 2.531262 15.365341 2.204646 1.136555 17.611070 -1.037624 2.361552 -3.125602 -2.335498 1.305248 -0.997899 -1.077941 -3.348211 -12.675357 -4.361623 54.305653 -41.526264 -62.679167 23.050803 -17.205868 -56.067947 -4.716326 -0.750976 -0.826678 20.332835 -10.622692 -7.817343 -77.242409 -20.775053 94.571170 -19.693336 -21.270336 40.921836 5.394797 -46.177820 -3.844165 -9.604284 68.133116 -10.039627 11.025872 25.697587 4.489133 -0.393736 -18.489986 2.456824 -7.515924 -42.483950 3.950591 26.084016 68.408813 23.905082 -14.657559 2.224509 -1.520292 -0.011807 0.140273 -0.024236
-83.979267 57.919806 88.640108 174.588080 -30.073275 -1.035164 3.091497 17.592641 2.529132 0.283253 1.939647 0.237748 0.474763 3.218359 0.400143 2.531697 15.362297 2.209561 1.097886 17.587686 -1.067181 2.311363 -3.169039 -2.371339 1.307645 -1.004431 -1.084600 -3.378359 -12.653544 -4.358170 54.334902 -41.526972 -62.700868 23.060240 -17.190696 -56.062474 -4.755819 -0.759946 -0.825251 20.362960 -10.606798 -7.825991 -77.218518 -20.749018 94.546238 -19.685145 -21.262703 40.916421 5.381886 -46.178776 -3.845860 -9.566453 68.133921 -10.006996 11.017132 25.696289 4.483264 -0.391958 -18.488993 2.456288 -7.522699 -42.486477 3.948755 26.073335 68.410652 23.889111 -14.651959 2.227063 -1.514739 -0.017243 0.140787 -0.021972
-83.979432 57.920901 88.639670 174.588555 -30.068835 -1.029999 3.089723 17.590264 2.530292 0.283457 1.939199 0.238029 0.477531 3.208462 0.407400 2.525013 15.371150 2.197504 1.069605 17.563743 -1.086443 2.264429 -3.209635 -2.407844 1.319234 -1.018555 -1.069721 -3.405192 -12.627462 -4.368837 54.337877 -41.514876 -62.707844 23.059682 -17.188350 -56.057633 -4.764123 -0.762664 -0.824146 20.349558 -10.591855 -7.828330 -77.176211 -20.714770 94.522196 -19.672915 -21.259895 40.920509 5.380610 -46.183200 -3.850452 -9.546872 68.134709 -9.991840 11.013710 25.699634 4.483423 -0.394031 -18.491858 2.456138 -7.529207 -42.490346 3.950029 26.067844 68.412680 23.875999 -14.649581 2.228683 -1.509751 -0.016173 0.139373 -0.024644
-83.979259 57.921919 88.639282 174.592549 -30.064925 -1.027117 3.088241 17.574043 2.538012 0.281854 1.945667 0.233989 0.475382 3.203408 0.405148 2.525422 15.368782 2.203130 1.015434 17.512294 -1.130280 2.245272 -3.209766 -2.431107 1.327510 -1.015401 -1.064158 -3.455266 -12.590804 -4.370150 54.367067 -41.513600 -62.736731 23.027079 -17.164950 -56.034674 -4.773935 -0.753485 -0.833144 20.334413 -10.581187 -7.822853 -77.122532 -20.677249 94.482440 -19.667669 -21.252342 40.907137 5.381343 -46.186510 -3.859546 -9.535104 68.134671 -9.978356 11.011532 25.704416 4.484555 -0.394457 -18.495539 2.453021 -7.540892 -42.492907 3.954851 26.062427 68.414686 23.861905 -14.650294 2.227489 -1.507897 -0.013499 0.140310 -0.024906
-83.978359 57.922992 88.638603 174.595583 -30.064684 -1.026200 3.083651 17.566894 2.541306 0.284531 1.943436 0.231139 0.472174 3.199757 0.407837 2.528217 15.366156 2.202395 0.988896 17.491756 -1.150218 2.208938 -3.238224 -2.463868 1.330890 -1.011827 -1.060248 -3.481225 -12.563129 -4.371600 54.346785 -41.518105 -62.730599 23.012097 -17.170362 -56.032569 -4.791936 -0.745992 -0.837638 20.324202 -10.552427 -7.792996 -77.080901 -20.668260 94.462966 -19.666639 -21.247853 40.884978 5.387714 -46.185128 -3.870482 -9.531641 68.133456 -9.967833 11.016895 25.706808 4.489798 -0.395368 -18.497630 2.447244 -7.554045 -42.492160 3.963975 26.057595 68.417679 23.847926 -14.652078 2.227220 -1.508100 -0.009745 0.141031 -0.018006
-83.977907 57.923193 88.639080 174.593147 -30.057613 -1.018889 3.082657 17.556793 2.537820 0.282723 1.937433 0.234727 0.473777 3.195542 0.406890 2.524733 15.358150 2.201942 0.978296 17.494905 -1.163699 2.170476 -3.283706 -2.503924 1.339809 -1.006671 -1.060505 -3.507965 -12.529360 -4.370567 54.334978 -41.532538 -62.730534 22.994573 -17.167666 -56.023445 -4.826966 -0.760134 -0.830443 20.350654 -10.500142 -7.776483 -77.048487 -20.647931 94.437760 -19.683425 -21.228188 40.838324 5.405026 -46.192262 -3.885582 -9.556873 68.131014 -9.987500 11.030565 25.709720 4.495452 -0.397521 -18.499048 2.445063 -7.559641 -42.499682 3.970053 26.054988 68.420779 23.835437 -14.656692 2.228977 -1.509171 -0.004756 0.139600 -0.014090
-83.976737 57.922813 88.640345 174.592978 -30.046970 -1.016220 3.081129 17.543017 2.537813 0.283769 1.925328 0.241889 0.473188 3.197881 0.401593 2.523087 15.347149 2.205007 0.955480 17.470852 -1.191583 2.157466 -3.283876 -2.522802 1.348594 -1.001463 -1.062545 -3.535418 -12.492876 -4.367707 54.314263 -41.545626 -62.723118 22.978865 -17.168961 -56.015850 -4.835598 -0.747282 -0.836907 20.347674 -10.476482 -7.760983 -77.030058 -20.643316 94.430843 -19.706820 -21.202824 40.785910 5.411879 -46.202049 -3.892797 -9.589563 68.124231 -10.014290 11.046084 25.714860 4.497306 -0.391294 -18.500321 2.441098 -7.567368 -42.510516 3.979252 26.038261 68.423881 23.812138 -14.655822 2.231340 -1.510615 -0.001481 0.139387 -0.010888
-83.975848 57.922400 88.641357 174.597384 -30.039143 -1.013574 3.078742 17.529979 2.538596 0.281659 1.920041 0.242854 0.471731 3.199204 0.398832 2.521932 15.306308 2.209963 0.935344 17.468808 -1.219874 2.163170 -3.248144 -2.516757 1.361116 -0.968610 -1.063122 -3.559207 -12.458219 -4.363994 54.281997 -41.563819 -62.716327 22.993687 -17.185761 -56.013917 -4.841893 -0.710136 -0.846472 20.348462 -10.459496 -7.754155 -76.990794 -20.598171 94.388165 -19.701514 -21.194032 40.763690 5.417246 -46.210187 -3.901531 -9.614546 68.122110 -10.036970 11.053918 25.716348 4.503697 -0.390487 -18.500452 2.436141 -7.578818 -42.519553 3.987400 26.043763 68.426658 23.805545 -14.656955 2.232118 -1.510263 -0.003503 0.139016 -0.007186
-83.975226 57.920818 88.644252 174.604869 -30.019508 -1.012399 3.071304 17.498206 2.543105 0.280550 1.919862 0.237508 0.470278 3.208863 0.395089 2.519676 15.273635 2.212629 0.925688 17.452836 -1.239771 2.128593 -3.332071 -2.585899 1.378899 -0.947422 -1.059467 -3.579999 -12.424855 -4.361699 54.178656 -41.591126 -62.681980 23.041325 -17.243129 -56.013066 -4.863217 -0.707576 -0.842950 20.345391 -10.407900 -7.728680 -76.934632 -20.576726 94.358706 -19.689827 -21.199619 40.761119 5.417840 -46.228908 -3.910729 -9.622784 68.118808 -10.045155 11.053812 25.714280 4.512346 -0.383523 -18.495927 2.426199 -7.595727 -42.540970 3.997085 26.050877 68.428415 23.803218 -14.661407 2.228479 -1.515152 0.001381 0.143741 -0.002321
-83.974929 57.919899 88.645896 174.609193 -30.009732 -1.008399 3.066384 17.483459 2.539096 0.280159 1.917312 0.237353 0.468188 3.196762 0.397411 2.518337 15.247651 2.211263 0.919867 17.454973 -1.254576 2.118386 -3.396420 -2.637656 1.395071 -0.913105 -1.052184 -3.596051 -12.392568 -4.364770 54.142534 -41.600350 -62.682111 23.011241 -17.209346 -56.000949 -4.918363 -0.737853 -0.830866 20.352813 -10.282020 -7.663005 -76.876881 -20.606242 94.366949 -19.686639 -21.205271 40.751144 5.417686 -46.240246 -3.916809 -9.630097 68.118485 -10.053318 11.048788 25.717839 4.508688 -0.387872 -18.496363 2.428786 -7.599231 -42.552162 3.995220 26.063983 68.428994 23.808183 -14.655985 2.225330 -1.509984 -0.006203 0.147212 -0.002697
-83.975371 57.918691 88.647994 174.609438 -29.997973 -1.000359 3.064990 17.465350 2.533053 0.279829 1.914500 0.237140 0.468802 3.144282 0.402322 2.513308 15.256252 2.209083 0.917194 17.493089 -1.260635 2.116860 -3.470678 -2.688509 1.412922 -0.868928 -1.039130 -3.610821 -12.373261 -4.377545 54.107478 -41.596210 -62.674573 23.003967 -17.209243 -55.987219 -4.948399 -0.730827 -0.830541 20.367711 -10.223308 -7.638908 -76.828601 -20.595622 94.337522 -19.679224 -21.222919 40.768439 5.424137 -46.254826 -3.925952 -9.646709 68.116075 -10.073279 11.051944 25.726425 4.511749 -0.386491 -18.500411 2.427661 -7.597012 -42.565145 3.990886 26.063362 68.430455 23.800051 -14.650728 2.222143 -1.504934 -0.004584 0.150719 -0.002447
-83.976316 57.917743 88.649659 174.609080 -29.990495 -0.991416 3.063294 17.431191 2.529994 0.278049 1.917743 0.235068 0.468004 3.141995 0.400819 2.512288 15.224624 2.211463 0.911716 17.482503 -1.282554 2.120005 -3.485751 -2.724464 1.437797 -0.820978 -1.023187 -3.629876 -12.354829 -4.395044 54.086475 -41.587356 -62.678111 22.994023 -17.194217 -55.963318 -4.980820 -0.725389 -0.832544 20.382626 -10.159649 -7.612120 -76.769210 -20.591529 94.301911 -19.676571 -21.224443 40.749168 5.427902 -46.265558 -3.935138 -9.656608 68.116144 -10.087712 11.053733 25.731271 4.516756 -0.386656 -18.502244 2.423815 -7.594651 -42.571959 3.985362 26.073224 68.428775 23.803159 -14.656679 2.214796 -1.504608 -0.001446 0.156512 -0.000856
-83.977188 57.917068 88.650944 174.612744 -29.987209 -0.987486 3.058630 17.418952 2.525776 0.281264 1.880275 0.240713 0.463432 3.179919 0.394625 2.512187 15.203878 2.213402 0.910624 17.444583 -1.301371 2.116575 -3.492072 -2.762849 1.470062 -0.803355 -1.004434 -3.649666 -12.308578 -4.410706 54.096849 -41.595742 -62.720449 22.990150 -17.180360 -55.949710 -4.997985 -0.723075 -0.833977 20.368794 -10.101408 -7.576065 -76.711728 -20.614641 94.292836 -19.667373 -21.208961 40.708496 5.428650 -46.270098 -3.940583 -9.664407 68.115532 -10.098340 11.051325 25.733663 4.517503 -0.385898 -18.502626 2.423687 -7.592000 -42.574246 3.981374 26.064632 68.428105 23.790575 -14.660435 2.210225 -1.502698 -0.005189 0.160349 0.000101
-83.978593 57.916421 88.652191 174.615242 -29.985211 -0.982418 3.058384 17.394687 2.525789 0.277315 1.895604 0.236616 0.465241 3.148355 0.398282 2.508242 15.212628 2.213025 0.907576 17.410317 -1.321043 2.107799 -3.500113 -2.803717 1.504664 -0.784261 -0.983842 -3.677857 -12.285039 -4.431861 54.082239 -41.566600 -62.748566 22.966452 -17.195509 -55.924834 -5.016764 -0.720182 -0.835026 20.357876 -10.021758 -7.530255 -76.646002 -20.665350 94.284257 -19.657999 -21.204645 40.686231 5.432462 -46.272292 -3.948141 -9.652585 68.114162 -10.089876 11.042590 25.737583 4.519523 -0.385715 -18.503362 2.423244 -7.588539 -42.577088 3.974392 26.060955 68.428480 23.781766 -14.658135 2.209713 -1.497449 -0.013253 0.160177 -0.001343
-83.981502 57.914787 88.654980 174.623356 -29.972539 -0.974257 3.049282 17.364750 2.522220 0.276762 1.889797 0.236782 0.464526 3.139241 0.398783 2.511566 15.160268 2.229396 0.884967 17.378180 -1.372297 2.091815 -3.467895 -2.835060 1.529156 -0.706084 -0.977917 -3.707223 -12.267542 -4.456433 54.079122 -41.524442 -62.794288 22.958913 -17.138758 -55.889385 -5.067681 -0.692276 -0.850457 20.388266 -9.946894 -7.510576 -76.565944 -20.695546 94.226803 -19.647772 -21.199433 40.669084 5.441090 -46.286904 -3.966781 -9.656641 68.115233 -10.101781 11.058396 25.735385 4.534510 -0.392059 -18.501925 2.421486 -7.585415 -42.592715 3.963315 26.030806 68.428345 23.745496 -14.652413 2.216790 -1.497537 -0.015957 0.158141 0.002366
